<svg width="221" height="95" viewBox="0 0 221 95" fill="none" xmlns="http://www.w3.org/2000/svg">
<path d="M0.9375 66.5C5.47917 68.875 10.3333 70.75 15.5 72.125C20.7083 73.5 25.25 74.1875 29.125 74.1875C33 74.1875 35.8125 73.5833 37.5625 72.375C39.3542 71.125 40.25 69.4583 40.25 67.375C40.25 65.0833 38.7917 63.0417 35.875 61.25C34.2083 60.2083 30.2708 58.2917 24.0625 55.5C17.8542 52.7083 13.2708 50.0417 10.3125 47.5C4.4375 42.5 1.5 35.75 1.5 27.25C1.5 18.7083 4.58333 12.0833 10.75 7.375C16.9167 2.66667 25.3333 0.3125 36 0.3125C45.4583 0.3125 55.1042 2.5 64.9375 6.875L57.3125 25.9375C48.8542 22.0208 41.5 20.0625 35.25 20.0625C32.1667 20.0625 29.8542 20.6042 28.3125 21.6875C26.8125 22.7708 26.0625 24.1875 26.0625 25.9375C26.0625 27.6875 26.9792 29.3125 28.8125 30.8125C30.4375 32.0625 35.2917 34.5417 43.375 38.25C51.5 41.9167 57.125 45.8125 60.25 49.9375C63.375 54.0208 64.9375 59.125 64.9375 65.25C64.9375 65.4167 64.9375 65.5833 64.9375 65.75C64.9375 74.0833 61.7083 80.9167 55.25 86.25C48.8333 91.5833 40.375 94.25 29.875 94.25C29.625 94.25 29.375 94.25 29.125 94.25C23.1667 94.25 18.0833 93.8333 13.875 93C9.66667 92.125 5.35417 90.625 0.9375 88.5V66.5ZM141.625 21.8125H119.375V93H94.6875V21.8125H72.375V1.625H141.625V21.8125ZM154.688 1.625H186.312C197.729 1.625 206.354 4.125 212.188 9.125C218.062 14.125 221 21.3333 221 30.75C221 40.9583 217.979 48.8333 211.938 54.375C205.896 59.9167 197.354 62.6875 186.312 62.6875H179.375V93H154.688V1.625ZM179.375 21.5625V42.5625H183.875C187.583 42.5625 190.521 41.5208 192.688 39.4375C194.896 37.3542 196 34.5 196 30.875C196 24.6667 192.583 21.5625 185.75 21.5625H179.375Z" fill="white"/>
</svg>
