<svg width="447" height="341" viewBox="0 0 447 341" fill="none" xmlns="http://www.w3.org/2000/svg">
<path d="M126.718 0.50214L107.628 1.41117V19.5918C107.628 41.7116 114.294 43.2266 116.718 22.0159L118.233 8.68342H277.314H436.394V169.279V329.875H277.314H118.233L116.718 318.057C114.294 298.059 107.628 300.786 107.628 321.996V340.48H277.314H447L446.394 170.491L445.485 0.80515L295.494 0.199129C213.076 -0.103881 137.02 -0.103881 126.718 0.50214Z" fill="white"/>
<path d="M0.0596836 70.8022C0.968715 72.3173 6.4229 73.8323 12.1801 73.8323C20.0584 73.8323 23.6945 75.9534 28.5427 82.6196C32.1788 87.4678 34.9059 92.316 34.9059 93.225C34.9059 94.134 37.936 101.709 41.2691 109.588C52.1775 133.828 55.5106 141.404 62.1768 158.675C65.813 167.766 70.3581 179.28 72.7822 184.431C74.9033 189.279 79.4484 199.582 82.4785 207.157C85.8117 214.732 93.0839 232.61 98.8411 247.457C110.356 276.849 114.901 279.274 121.87 260.184C134.596 225.944 145.202 198.673 148.535 190.491C150.959 185.34 155.504 173.826 159.14 164.736C162.776 155.645 168.837 141.101 173.079 132.01C177.018 123.223 180.351 115.345 180.351 114.739C180.351 111.103 193.986 83.8317 197.926 78.9835C200.35 76.2564 206.41 73.8323 210.955 73.8323C215.5 73.8323 220.348 72.3173 221.257 70.8022C222.469 68.9842 210.652 67.7721 188.229 67.7721C166.715 67.7721 153.08 68.9842 153.08 70.8022C153.08 72.3173 159.14 73.8323 166.715 73.8323C178.836 73.8323 180.351 74.7414 180.351 80.4986C180.351 88.9829 132.778 209.884 127.021 215.944C123.688 219.58 122.476 218.974 119.749 211.399C117.931 206.551 114.295 197.764 111.568 192.006C109.143 186.249 106.113 178.674 104.598 175.341C100.962 165.948 96.72 155.342 89.7508 139.889C86.1147 132.01 83.3876 124.132 83.3876 122.314C83.3876 120.496 82.1755 116.86 80.6605 113.83C79.1454 111.103 76.4183 104.436 74.2973 99.5882C72.1762 94.437 69.4491 88.0738 67.631 85.0437C63.3889 76.5594 67.328 73.8323 85.2056 73.8323C94.296 73.8323 101.568 72.3173 101.568 70.8022C101.568 68.9842 82.1755 67.7721 49.7534 67.7721C16.1192 67.7721 -1.15236 68.6811 0.0596836 70.8022Z" fill="white"/>
</svg>
